<mxfile host="app.diagrams.net" modified="2024-05-22T14:03:19.687Z" agent="Mozilla/5.0 (Windows NT 10.0; Win64; x64) AppleWebKit/537.36 (KHTML, like Gecko) Chrome/125.0.0.0 Safari/537.36" etag="QYnUyyOuIKrP_vVApIgk" version="24.4.6" type="github">
  <diagram name="第 1 页" id="T-Y5g9HEh9PjL1kTXAn0">
    <mxGraphModel dx="1434" dy="746" grid="1" gridSize="10" guides="1" tooltips="1" connect="1" arrows="1" fold="1" page="1" pageScale="1" pageWidth="827" pageHeight="1169" math="0" shadow="0">
      <root>
        <mxCell id="0" />
        <mxCell id="1" parent="0" />
        <mxCell id="boeS_ri1tZTHoRoHTXlC-1" value="" style="shape=table;startSize=0;container=1;collapsible=0;childLayout=tableLayout;fontSize=16;" vertex="1" parent="1">
          <mxGeometry x="30" y="170" width="140" height="140" as="geometry" />
        </mxCell>
        <mxCell id="boeS_ri1tZTHoRoHTXlC-2" value="" style="shape=tableRow;horizontal=0;startSize=0;swimlaneHead=0;swimlaneBody=0;strokeColor=inherit;top=0;left=0;bottom=0;right=0;collapsible=0;dropTarget=0;fillColor=none;points=[[0,0.5],[1,0.5]];portConstraint=eastwest;fontSize=16;" vertex="1" parent="boeS_ri1tZTHoRoHTXlC-1">
          <mxGeometry width="140" height="47" as="geometry" />
        </mxCell>
        <mxCell id="boeS_ri1tZTHoRoHTXlC-3" value="1" style="shape=partialRectangle;html=1;whiteSpace=wrap;connectable=0;strokeColor=inherit;overflow=hidden;fillColor=none;top=0;left=0;bottom=0;right=0;pointerEvents=1;fontSize=16;" vertex="1" parent="boeS_ri1tZTHoRoHTXlC-2">
          <mxGeometry width="47" height="47" as="geometry">
            <mxRectangle width="47" height="47" as="alternateBounds" />
          </mxGeometry>
        </mxCell>
        <mxCell id="boeS_ri1tZTHoRoHTXlC-4" value="1" style="shape=partialRectangle;html=1;whiteSpace=wrap;connectable=0;strokeColor=inherit;overflow=hidden;fillColor=none;top=0;left=0;bottom=0;right=0;pointerEvents=1;fontSize=16;" vertex="1" parent="boeS_ri1tZTHoRoHTXlC-2">
          <mxGeometry x="47" width="46" height="47" as="geometry">
            <mxRectangle width="46" height="47" as="alternateBounds" />
          </mxGeometry>
        </mxCell>
        <mxCell id="boeS_ri1tZTHoRoHTXlC-5" value="1" style="shape=partialRectangle;html=1;whiteSpace=wrap;connectable=0;strokeColor=inherit;overflow=hidden;fillColor=none;top=0;left=0;bottom=0;right=0;pointerEvents=1;fontSize=16;" vertex="1" parent="boeS_ri1tZTHoRoHTXlC-2">
          <mxGeometry x="93" width="47" height="47" as="geometry">
            <mxRectangle width="47" height="47" as="alternateBounds" />
          </mxGeometry>
        </mxCell>
        <mxCell id="boeS_ri1tZTHoRoHTXlC-6" value="" style="shape=tableRow;horizontal=0;startSize=0;swimlaneHead=0;swimlaneBody=0;strokeColor=inherit;top=0;left=0;bottom=0;right=0;collapsible=0;dropTarget=0;fillColor=none;points=[[0,0.5],[1,0.5]];portConstraint=eastwest;fontSize=16;" vertex="1" parent="boeS_ri1tZTHoRoHTXlC-1">
          <mxGeometry y="47" width="140" height="46" as="geometry" />
        </mxCell>
        <mxCell id="boeS_ri1tZTHoRoHTXlC-7" value="1" style="shape=partialRectangle;html=1;whiteSpace=wrap;connectable=0;strokeColor=inherit;overflow=hidden;fillColor=none;top=0;left=0;bottom=0;right=0;pointerEvents=1;fontSize=16;" vertex="1" parent="boeS_ri1tZTHoRoHTXlC-6">
          <mxGeometry width="47" height="46" as="geometry">
            <mxRectangle width="47" height="46" as="alternateBounds" />
          </mxGeometry>
        </mxCell>
        <mxCell id="boeS_ri1tZTHoRoHTXlC-8" value="1" style="shape=partialRectangle;html=1;whiteSpace=wrap;connectable=0;strokeColor=inherit;overflow=hidden;fillColor=none;top=0;left=0;bottom=0;right=0;pointerEvents=1;fontSize=16;" vertex="1" parent="boeS_ri1tZTHoRoHTXlC-6">
          <mxGeometry x="47" width="46" height="46" as="geometry">
            <mxRectangle width="46" height="46" as="alternateBounds" />
          </mxGeometry>
        </mxCell>
        <mxCell id="boeS_ri1tZTHoRoHTXlC-9" value="1" style="shape=partialRectangle;html=1;whiteSpace=wrap;connectable=0;strokeColor=inherit;overflow=hidden;fillColor=none;top=0;left=0;bottom=0;right=0;pointerEvents=1;fontSize=16;" vertex="1" parent="boeS_ri1tZTHoRoHTXlC-6">
          <mxGeometry x="93" width="47" height="46" as="geometry">
            <mxRectangle width="47" height="46" as="alternateBounds" />
          </mxGeometry>
        </mxCell>
        <mxCell id="boeS_ri1tZTHoRoHTXlC-10" value="" style="shape=tableRow;horizontal=0;startSize=0;swimlaneHead=0;swimlaneBody=0;strokeColor=inherit;top=0;left=0;bottom=0;right=0;collapsible=0;dropTarget=0;fillColor=none;points=[[0,0.5],[1,0.5]];portConstraint=eastwest;fontSize=16;" vertex="1" parent="boeS_ri1tZTHoRoHTXlC-1">
          <mxGeometry y="93" width="140" height="47" as="geometry" />
        </mxCell>
        <mxCell id="boeS_ri1tZTHoRoHTXlC-11" value="1" style="shape=partialRectangle;html=1;whiteSpace=wrap;connectable=0;strokeColor=inherit;overflow=hidden;fillColor=none;top=0;left=0;bottom=0;right=0;pointerEvents=1;fontSize=16;" vertex="1" parent="boeS_ri1tZTHoRoHTXlC-10">
          <mxGeometry width="47" height="47" as="geometry">
            <mxRectangle width="47" height="47" as="alternateBounds" />
          </mxGeometry>
        </mxCell>
        <mxCell id="boeS_ri1tZTHoRoHTXlC-12" value="1" style="shape=partialRectangle;html=1;whiteSpace=wrap;connectable=0;strokeColor=inherit;overflow=hidden;fillColor=none;top=0;left=0;bottom=0;right=0;pointerEvents=1;fontSize=16;" vertex="1" parent="boeS_ri1tZTHoRoHTXlC-10">
          <mxGeometry x="47" width="46" height="47" as="geometry">
            <mxRectangle width="46" height="47" as="alternateBounds" />
          </mxGeometry>
        </mxCell>
        <mxCell id="boeS_ri1tZTHoRoHTXlC-13" value="1" style="shape=partialRectangle;html=1;whiteSpace=wrap;connectable=0;strokeColor=inherit;overflow=hidden;fillColor=none;top=0;left=0;bottom=0;right=0;pointerEvents=1;fontSize=16;" vertex="1" parent="boeS_ri1tZTHoRoHTXlC-10">
          <mxGeometry x="93" width="47" height="47" as="geometry">
            <mxRectangle width="47" height="47" as="alternateBounds" />
          </mxGeometry>
        </mxCell>
        <mxCell id="boeS_ri1tZTHoRoHTXlC-14" value="" style="shape=partialRectangle;html=1;whiteSpace=wrap;connectable=0;strokeColor=inherit;overflow=hidden;fillColor=none;top=0;left=0;bottom=0;right=0;pointerEvents=1;fontSize=16;" vertex="1" parent="1">
          <mxGeometry x="30" y="290" width="60" height="40" as="geometry">
            <mxRectangle width="60" height="40" as="alternateBounds" />
          </mxGeometry>
        </mxCell>
        <mxCell id="boeS_ri1tZTHoRoHTXlC-15" value="" style="shape=partialRectangle;html=1;whiteSpace=wrap;connectable=0;strokeColor=inherit;overflow=hidden;fillColor=none;top=0;left=0;bottom=0;right=0;pointerEvents=1;fontSize=16;" vertex="1" parent="1">
          <mxGeometry x="90" y="290" width="60" height="40" as="geometry">
            <mxRectangle width="60" height="40" as="alternateBounds" />
          </mxGeometry>
        </mxCell>
        <mxCell id="boeS_ri1tZTHoRoHTXlC-16" value="" style="shape=partialRectangle;html=1;whiteSpace=wrap;connectable=0;strokeColor=inherit;overflow=hidden;fillColor=none;top=0;left=0;bottom=0;right=0;pointerEvents=1;fontSize=16;" vertex="1" parent="1">
          <mxGeometry x="150" y="290" width="60" height="40" as="geometry">
            <mxRectangle width="60" height="40" as="alternateBounds" />
          </mxGeometry>
        </mxCell>
        <mxCell id="boeS_ri1tZTHoRoHTXlC-17" value="" style="shape=table;startSize=0;container=1;collapsible=0;childLayout=tableLayout;fontSize=16;" vertex="1" parent="1">
          <mxGeometry x="170" y="170" width="140" height="140" as="geometry" />
        </mxCell>
        <mxCell id="boeS_ri1tZTHoRoHTXlC-18" value="" style="shape=tableRow;horizontal=0;startSize=0;swimlaneHead=0;swimlaneBody=0;strokeColor=inherit;top=0;left=0;bottom=0;right=0;collapsible=0;dropTarget=0;fillColor=none;points=[[0,0.5],[1,0.5]];portConstraint=eastwest;fontSize=16;" vertex="1" parent="boeS_ri1tZTHoRoHTXlC-17">
          <mxGeometry width="140" height="47" as="geometry" />
        </mxCell>
        <mxCell id="boeS_ri1tZTHoRoHTXlC-19" value="1" style="shape=partialRectangle;html=1;whiteSpace=wrap;connectable=0;strokeColor=inherit;overflow=hidden;fillColor=none;top=0;left=0;bottom=0;right=0;pointerEvents=1;fontSize=16;" vertex="1" parent="boeS_ri1tZTHoRoHTXlC-18">
          <mxGeometry width="47" height="47" as="geometry">
            <mxRectangle width="47" height="47" as="alternateBounds" />
          </mxGeometry>
        </mxCell>
        <mxCell id="boeS_ri1tZTHoRoHTXlC-20" value="1" style="shape=partialRectangle;html=1;whiteSpace=wrap;connectable=0;strokeColor=inherit;overflow=hidden;fillColor=none;top=0;left=0;bottom=0;right=0;pointerEvents=1;fontSize=16;" vertex="1" parent="boeS_ri1tZTHoRoHTXlC-18">
          <mxGeometry x="47" width="46" height="47" as="geometry">
            <mxRectangle width="46" height="47" as="alternateBounds" />
          </mxGeometry>
        </mxCell>
        <mxCell id="boeS_ri1tZTHoRoHTXlC-21" value="" style="shape=partialRectangle;html=1;whiteSpace=wrap;connectable=0;strokeColor=inherit;overflow=hidden;fillColor=none;top=0;left=0;bottom=0;right=0;pointerEvents=1;fontSize=16;" vertex="1" parent="boeS_ri1tZTHoRoHTXlC-18">
          <mxGeometry x="93" width="47" height="47" as="geometry">
            <mxRectangle width="47" height="47" as="alternateBounds" />
          </mxGeometry>
        </mxCell>
        <mxCell id="boeS_ri1tZTHoRoHTXlC-22" value="" style="shape=tableRow;horizontal=0;startSize=0;swimlaneHead=0;swimlaneBody=0;strokeColor=inherit;top=0;left=0;bottom=0;right=0;collapsible=0;dropTarget=0;fillColor=none;points=[[0,0.5],[1,0.5]];portConstraint=eastwest;fontSize=16;" vertex="1" parent="boeS_ri1tZTHoRoHTXlC-17">
          <mxGeometry y="47" width="140" height="46" as="geometry" />
        </mxCell>
        <mxCell id="boeS_ri1tZTHoRoHTXlC-23" value="1" style="shape=partialRectangle;html=1;whiteSpace=wrap;connectable=0;strokeColor=inherit;overflow=hidden;fillColor=none;top=0;left=0;bottom=0;right=0;pointerEvents=1;fontSize=16;" vertex="1" parent="boeS_ri1tZTHoRoHTXlC-22">
          <mxGeometry width="47" height="46" as="geometry">
            <mxRectangle width="47" height="46" as="alternateBounds" />
          </mxGeometry>
        </mxCell>
        <mxCell id="boeS_ri1tZTHoRoHTXlC-24" value="1" style="shape=partialRectangle;html=1;whiteSpace=wrap;connectable=0;strokeColor=inherit;overflow=hidden;fillColor=none;top=0;left=0;bottom=0;right=0;pointerEvents=1;fontSize=16;" vertex="1" parent="boeS_ri1tZTHoRoHTXlC-22">
          <mxGeometry x="47" width="46" height="46" as="geometry">
            <mxRectangle width="46" height="46" as="alternateBounds" />
          </mxGeometry>
        </mxCell>
        <mxCell id="boeS_ri1tZTHoRoHTXlC-25" value="" style="shape=partialRectangle;html=1;whiteSpace=wrap;connectable=0;strokeColor=inherit;overflow=hidden;fillColor=none;top=0;left=0;bottom=0;right=0;pointerEvents=1;fontSize=16;" vertex="1" parent="boeS_ri1tZTHoRoHTXlC-22">
          <mxGeometry x="93" width="47" height="46" as="geometry">
            <mxRectangle width="47" height="46" as="alternateBounds" />
          </mxGeometry>
        </mxCell>
        <mxCell id="boeS_ri1tZTHoRoHTXlC-26" value="" style="shape=tableRow;horizontal=0;startSize=0;swimlaneHead=0;swimlaneBody=0;strokeColor=inherit;top=0;left=0;bottom=0;right=0;collapsible=0;dropTarget=0;fillColor=none;points=[[0,0.5],[1,0.5]];portConstraint=eastwest;fontSize=16;" vertex="1" parent="boeS_ri1tZTHoRoHTXlC-17">
          <mxGeometry y="93" width="140" height="47" as="geometry" />
        </mxCell>
        <mxCell id="boeS_ri1tZTHoRoHTXlC-27" value="1" style="shape=partialRectangle;html=1;whiteSpace=wrap;connectable=0;strokeColor=inherit;overflow=hidden;fillColor=none;top=0;left=0;bottom=0;right=0;pointerEvents=1;fontSize=16;" vertex="1" parent="boeS_ri1tZTHoRoHTXlC-26">
          <mxGeometry width="47" height="47" as="geometry">
            <mxRectangle width="47" height="47" as="alternateBounds" />
          </mxGeometry>
        </mxCell>
        <mxCell id="boeS_ri1tZTHoRoHTXlC-28" value="1" style="shape=partialRectangle;html=1;whiteSpace=wrap;connectable=0;strokeColor=inherit;overflow=hidden;fillColor=none;top=0;left=0;bottom=0;right=0;pointerEvents=1;fontSize=16;" vertex="1" parent="boeS_ri1tZTHoRoHTXlC-26">
          <mxGeometry x="47" width="46" height="47" as="geometry">
            <mxRectangle width="46" height="47" as="alternateBounds" />
          </mxGeometry>
        </mxCell>
        <mxCell id="boeS_ri1tZTHoRoHTXlC-29" value="" style="shape=partialRectangle;html=1;whiteSpace=wrap;connectable=0;strokeColor=inherit;overflow=hidden;fillColor=none;top=0;left=0;bottom=0;right=0;pointerEvents=1;fontSize=16;" vertex="1" parent="boeS_ri1tZTHoRoHTXlC-26">
          <mxGeometry x="93" width="47" height="47" as="geometry">
            <mxRectangle width="47" height="47" as="alternateBounds" />
          </mxGeometry>
        </mxCell>
        <mxCell id="boeS_ri1tZTHoRoHTXlC-30" value="" style="shape=table;startSize=0;container=1;collapsible=0;childLayout=tableLayout;fontSize=16;" vertex="1" parent="1">
          <mxGeometry x="30" y="310" width="140" height="140" as="geometry" />
        </mxCell>
        <mxCell id="boeS_ri1tZTHoRoHTXlC-31" value="" style="shape=tableRow;horizontal=0;startSize=0;swimlaneHead=0;swimlaneBody=0;strokeColor=inherit;top=0;left=0;bottom=0;right=0;collapsible=0;dropTarget=0;fillColor=none;points=[[0,0.5],[1,0.5]];portConstraint=eastwest;fontSize=16;" vertex="1" parent="boeS_ri1tZTHoRoHTXlC-30">
          <mxGeometry width="140" height="47" as="geometry" />
        </mxCell>
        <mxCell id="boeS_ri1tZTHoRoHTXlC-32" value="" style="shape=partialRectangle;html=1;whiteSpace=wrap;connectable=0;strokeColor=inherit;overflow=hidden;fillColor=none;top=0;left=0;bottom=0;right=0;pointerEvents=1;fontSize=16;" vertex="1" parent="boeS_ri1tZTHoRoHTXlC-31">
          <mxGeometry width="47" height="47" as="geometry">
            <mxRectangle width="47" height="47" as="alternateBounds" />
          </mxGeometry>
        </mxCell>
        <mxCell id="boeS_ri1tZTHoRoHTXlC-33" value="" style="shape=partialRectangle;html=1;whiteSpace=wrap;connectable=0;strokeColor=inherit;overflow=hidden;fillColor=none;top=0;left=0;bottom=0;right=0;pointerEvents=1;fontSize=16;" vertex="1" parent="boeS_ri1tZTHoRoHTXlC-31">
          <mxGeometry x="47" width="46" height="47" as="geometry">
            <mxRectangle width="46" height="47" as="alternateBounds" />
          </mxGeometry>
        </mxCell>
        <mxCell id="boeS_ri1tZTHoRoHTXlC-34" value="" style="shape=partialRectangle;html=1;whiteSpace=wrap;connectable=0;strokeColor=inherit;overflow=hidden;fillColor=none;top=0;left=0;bottom=0;right=0;pointerEvents=1;fontSize=16;" vertex="1" parent="boeS_ri1tZTHoRoHTXlC-31">
          <mxGeometry x="93" width="47" height="47" as="geometry">
            <mxRectangle width="47" height="47" as="alternateBounds" />
          </mxGeometry>
        </mxCell>
        <mxCell id="boeS_ri1tZTHoRoHTXlC-35" value="" style="shape=tableRow;horizontal=0;startSize=0;swimlaneHead=0;swimlaneBody=0;strokeColor=inherit;top=0;left=0;bottom=0;right=0;collapsible=0;dropTarget=0;fillColor=none;points=[[0,0.5],[1,0.5]];portConstraint=eastwest;fontSize=16;" vertex="1" parent="boeS_ri1tZTHoRoHTXlC-30">
          <mxGeometry y="47" width="140" height="46" as="geometry" />
        </mxCell>
        <mxCell id="boeS_ri1tZTHoRoHTXlC-36" value="" style="shape=partialRectangle;html=1;whiteSpace=wrap;connectable=0;strokeColor=inherit;overflow=hidden;fillColor=none;top=0;left=0;bottom=0;right=0;pointerEvents=1;fontSize=16;" vertex="1" parent="boeS_ri1tZTHoRoHTXlC-35">
          <mxGeometry width="47" height="46" as="geometry">
            <mxRectangle width="47" height="46" as="alternateBounds" />
          </mxGeometry>
        </mxCell>
        <mxCell id="boeS_ri1tZTHoRoHTXlC-37" value="" style="shape=partialRectangle;html=1;whiteSpace=wrap;connectable=0;strokeColor=inherit;overflow=hidden;fillColor=none;top=0;left=0;bottom=0;right=0;pointerEvents=1;fontSize=16;" vertex="1" parent="boeS_ri1tZTHoRoHTXlC-35">
          <mxGeometry x="47" width="46" height="46" as="geometry">
            <mxRectangle width="46" height="46" as="alternateBounds" />
          </mxGeometry>
        </mxCell>
        <mxCell id="boeS_ri1tZTHoRoHTXlC-38" value="" style="shape=partialRectangle;html=1;whiteSpace=wrap;connectable=0;strokeColor=inherit;overflow=hidden;fillColor=none;top=0;left=0;bottom=0;right=0;pointerEvents=1;fontSize=16;" vertex="1" parent="boeS_ri1tZTHoRoHTXlC-35">
          <mxGeometry x="93" width="47" height="46" as="geometry">
            <mxRectangle width="47" height="46" as="alternateBounds" />
          </mxGeometry>
        </mxCell>
        <mxCell id="boeS_ri1tZTHoRoHTXlC-39" value="" style="shape=tableRow;horizontal=0;startSize=0;swimlaneHead=0;swimlaneBody=0;strokeColor=inherit;top=0;left=0;bottom=0;right=0;collapsible=0;dropTarget=0;fillColor=none;points=[[0,0.5],[1,0.5]];portConstraint=eastwest;fontSize=16;" vertex="1" parent="boeS_ri1tZTHoRoHTXlC-30">
          <mxGeometry y="93" width="140" height="47" as="geometry" />
        </mxCell>
        <mxCell id="boeS_ri1tZTHoRoHTXlC-40" value="" style="shape=partialRectangle;html=1;whiteSpace=wrap;connectable=0;strokeColor=inherit;overflow=hidden;fillColor=none;top=0;left=0;bottom=0;right=0;pointerEvents=1;fontSize=16;" vertex="1" parent="boeS_ri1tZTHoRoHTXlC-39">
          <mxGeometry width="47" height="47" as="geometry">
            <mxRectangle width="47" height="47" as="alternateBounds" />
          </mxGeometry>
        </mxCell>
        <mxCell id="boeS_ri1tZTHoRoHTXlC-41" value="" style="shape=partialRectangle;html=1;whiteSpace=wrap;connectable=0;strokeColor=inherit;overflow=hidden;fillColor=none;top=0;left=0;bottom=0;right=0;pointerEvents=1;fontSize=16;" vertex="1" parent="boeS_ri1tZTHoRoHTXlC-39">
          <mxGeometry x="47" width="46" height="47" as="geometry">
            <mxRectangle width="46" height="47" as="alternateBounds" />
          </mxGeometry>
        </mxCell>
        <mxCell id="boeS_ri1tZTHoRoHTXlC-42" value="" style="shape=partialRectangle;html=1;whiteSpace=wrap;connectable=0;strokeColor=inherit;overflow=hidden;fillColor=none;top=0;left=0;bottom=0;right=0;pointerEvents=1;fontSize=16;" vertex="1" parent="boeS_ri1tZTHoRoHTXlC-39">
          <mxGeometry x="93" width="47" height="47" as="geometry">
            <mxRectangle width="47" height="47" as="alternateBounds" />
          </mxGeometry>
        </mxCell>
        <mxCell id="boeS_ri1tZTHoRoHTXlC-43" value="" style="shape=table;startSize=0;container=1;collapsible=0;childLayout=tableLayout;fontSize=16;" vertex="1" parent="1">
          <mxGeometry x="170" y="310" width="140" height="140" as="geometry" />
        </mxCell>
        <mxCell id="boeS_ri1tZTHoRoHTXlC-44" value="" style="shape=tableRow;horizontal=0;startSize=0;swimlaneHead=0;swimlaneBody=0;strokeColor=inherit;top=0;left=0;bottom=0;right=0;collapsible=0;dropTarget=0;fillColor=none;points=[[0,0.5],[1,0.5]];portConstraint=eastwest;fontSize=16;" vertex="1" parent="boeS_ri1tZTHoRoHTXlC-43">
          <mxGeometry width="140" height="47" as="geometry" />
        </mxCell>
        <mxCell id="boeS_ri1tZTHoRoHTXlC-45" value="" style="shape=partialRectangle;html=1;whiteSpace=wrap;connectable=0;strokeColor=inherit;overflow=hidden;fillColor=none;top=0;left=0;bottom=0;right=0;pointerEvents=1;fontSize=16;" vertex="1" parent="boeS_ri1tZTHoRoHTXlC-44">
          <mxGeometry width="47" height="47" as="geometry">
            <mxRectangle width="47" height="47" as="alternateBounds" />
          </mxGeometry>
        </mxCell>
        <mxCell id="boeS_ri1tZTHoRoHTXlC-46" value="" style="shape=partialRectangle;html=1;whiteSpace=wrap;connectable=0;strokeColor=inherit;overflow=hidden;fillColor=none;top=0;left=0;bottom=0;right=0;pointerEvents=1;fontSize=16;" vertex="1" parent="boeS_ri1tZTHoRoHTXlC-44">
          <mxGeometry x="47" width="46" height="47" as="geometry">
            <mxRectangle width="46" height="47" as="alternateBounds" />
          </mxGeometry>
        </mxCell>
        <mxCell id="boeS_ri1tZTHoRoHTXlC-47" value="" style="shape=partialRectangle;html=1;whiteSpace=wrap;connectable=0;strokeColor=inherit;overflow=hidden;fillColor=none;top=0;left=0;bottom=0;right=0;pointerEvents=1;fontSize=16;" vertex="1" parent="boeS_ri1tZTHoRoHTXlC-44">
          <mxGeometry x="93" width="47" height="47" as="geometry">
            <mxRectangle width="47" height="47" as="alternateBounds" />
          </mxGeometry>
        </mxCell>
        <mxCell id="boeS_ri1tZTHoRoHTXlC-48" value="" style="shape=tableRow;horizontal=0;startSize=0;swimlaneHead=0;swimlaneBody=0;strokeColor=inherit;top=0;left=0;bottom=0;right=0;collapsible=0;dropTarget=0;fillColor=none;points=[[0,0.5],[1,0.5]];portConstraint=eastwest;fontSize=16;" vertex="1" parent="boeS_ri1tZTHoRoHTXlC-43">
          <mxGeometry y="47" width="140" height="46" as="geometry" />
        </mxCell>
        <mxCell id="boeS_ri1tZTHoRoHTXlC-49" value="" style="shape=partialRectangle;html=1;whiteSpace=wrap;connectable=0;strokeColor=inherit;overflow=hidden;fillColor=none;top=0;left=0;bottom=0;right=0;pointerEvents=1;fontSize=16;" vertex="1" parent="boeS_ri1tZTHoRoHTXlC-48">
          <mxGeometry width="47" height="46" as="geometry">
            <mxRectangle width="47" height="46" as="alternateBounds" />
          </mxGeometry>
        </mxCell>
        <mxCell id="boeS_ri1tZTHoRoHTXlC-50" value="" style="shape=partialRectangle;html=1;whiteSpace=wrap;connectable=0;strokeColor=inherit;overflow=hidden;fillColor=none;top=0;left=0;bottom=0;right=0;pointerEvents=1;fontSize=16;" vertex="1" parent="boeS_ri1tZTHoRoHTXlC-48">
          <mxGeometry x="47" width="46" height="46" as="geometry">
            <mxRectangle width="46" height="46" as="alternateBounds" />
          </mxGeometry>
        </mxCell>
        <mxCell id="boeS_ri1tZTHoRoHTXlC-51" value="" style="shape=partialRectangle;html=1;whiteSpace=wrap;connectable=0;strokeColor=inherit;overflow=hidden;fillColor=none;top=0;left=0;bottom=0;right=0;pointerEvents=1;fontSize=16;" vertex="1" parent="boeS_ri1tZTHoRoHTXlC-48">
          <mxGeometry x="93" width="47" height="46" as="geometry">
            <mxRectangle width="47" height="46" as="alternateBounds" />
          </mxGeometry>
        </mxCell>
        <mxCell id="boeS_ri1tZTHoRoHTXlC-52" value="" style="shape=tableRow;horizontal=0;startSize=0;swimlaneHead=0;swimlaneBody=0;strokeColor=inherit;top=0;left=0;bottom=0;right=0;collapsible=0;dropTarget=0;fillColor=none;points=[[0,0.5],[1,0.5]];portConstraint=eastwest;fontSize=16;" vertex="1" parent="boeS_ri1tZTHoRoHTXlC-43">
          <mxGeometry y="93" width="140" height="47" as="geometry" />
        </mxCell>
        <mxCell id="boeS_ri1tZTHoRoHTXlC-53" value="" style="shape=partialRectangle;html=1;whiteSpace=wrap;connectable=0;strokeColor=inherit;overflow=hidden;fillColor=none;top=0;left=0;bottom=0;right=0;pointerEvents=1;fontSize=16;" vertex="1" parent="boeS_ri1tZTHoRoHTXlC-52">
          <mxGeometry width="47" height="47" as="geometry">
            <mxRectangle width="47" height="47" as="alternateBounds" />
          </mxGeometry>
        </mxCell>
        <mxCell id="boeS_ri1tZTHoRoHTXlC-54" value="" style="shape=partialRectangle;html=1;whiteSpace=wrap;connectable=0;strokeColor=inherit;overflow=hidden;fillColor=none;top=0;left=0;bottom=0;right=0;pointerEvents=1;fontSize=16;" vertex="1" parent="boeS_ri1tZTHoRoHTXlC-52">
          <mxGeometry x="47" width="46" height="47" as="geometry">
            <mxRectangle width="46" height="47" as="alternateBounds" />
          </mxGeometry>
        </mxCell>
        <mxCell id="boeS_ri1tZTHoRoHTXlC-55" value="" style="shape=partialRectangle;html=1;whiteSpace=wrap;connectable=0;strokeColor=inherit;overflow=hidden;fillColor=none;top=0;left=0;bottom=0;right=0;pointerEvents=1;fontSize=16;" vertex="1" parent="boeS_ri1tZTHoRoHTXlC-52">
          <mxGeometry x="93" width="47" height="47" as="geometry">
            <mxRectangle width="47" height="47" as="alternateBounds" />
          </mxGeometry>
        </mxCell>
      </root>
    </mxGraphModel>
  </diagram>
</mxfile>
